<svg xmlns="http://www.w3.org/2000/svg" viewBox="0 0 1600 1000" role="img" aria-labelledby="title desc">
  <title id="title">Website and mobile app development interface</title>
  <desc id="desc">A polished website dashboard and mobile app mockup with code, analytics, and deployment interface elements.</desc>
  <defs>
    <linearGradient id="bg" x1="0" x2="1" y1="0" y2="1">
      <stop offset="0" stop-color="#f8fbff"/>
      <stop offset=".45" stop-color="#dcecff"/>
      <stop offset="1" stop-color="#93c5fd"/>
    </linearGradient>
    <linearGradient id="nav" x1="0" x2="1">
      <stop offset="0" stop-color="#071b3d"/>
      <stop offset="1" stop-color="#0b5ed7"/>
    </linearGradient>
    <linearGradient id="phone" x1="0" x2="1" y1="0" y2="1">
      <stop offset="0" stop-color="#071b3d"/>
      <stop offset=".55" stop-color="#0b5ed7"/>
      <stop offset="1" stop-color="#4d9fff"/>
    </linearGradient>
    <filter id="shadow" x="-20%" y="-20%" width="140%" height="140%">
      <feDropShadow dx="0" dy="34" stdDeviation="34" flood-color="#002868" flood-opacity=".22"/>
    </filter>
  </defs>
  <rect width="1600" height="1000" fill="url(#bg)"/>
  <circle cx="1320" cy="160" r="220" fill="#ffffff" opacity=".42"/>
  <circle cx="240" cy="810" r="260" fill="#0b5ed7" opacity=".11"/>
  <path d="M160 790 C420 610 530 900 790 720 C1050 540 1210 650 1450 490" fill="none" stroke="#ffffff" stroke-width="22" opacity=".52"/>

  <g filter="url(#shadow)">
    <rect x="130" y="158" width="1010" height="646" rx="46" fill="#ffffff"/>
    <rect x="130" y="158" width="1010" height="92" rx="46" fill="url(#nav)"/>
    <circle cx="190" cy="204" r="14" fill="#ff7b7b"/>
    <circle cx="234" cy="204" r="14" fill="#ffd166"/>
    <circle cx="278" cy="204" r="14" fill="#5ee6a8"/>
    <rect x="338" y="188" width="276" height="32" rx="16" fill="#ffffff" opacity=".22"/>
    <rect x="840" y="184" width="104" height="36" rx="18" fill="#ffffff" opacity=".22"/>
    <rect x="970" y="184" width="104" height="36" rx="18" fill="#ffffff" opacity=".22"/>

    <rect x="190" y="304" width="370" height="186" rx="30" fill="#071b3d"/>
    <text x="226" y="365" fill="#ffffff" font-family="Arial, Helvetica, sans-serif" font-size="38" font-weight="800">Web Portal</text>
    <text x="226" y="418" fill="#b9dcff" font-family="Arial, Helvetica, sans-serif" font-size="24" font-weight="700">Design, API, dashboard</text>
    <rect x="226" y="446" width="250" height="16" rx="8" fill="#4d9fff"/>

    <rect x="610" y="304" width="460" height="186" rx="30" fill="#eef6ff"/>
    <polyline points="654,430 724,382 792,414 862,342 944,388 1024,330" fill="none" stroke="#0b5ed7" stroke-width="18" stroke-linecap="round" stroke-linejoin="round"/>
    <rect x="654" y="346" width="116" height="18" rx="9" fill="#9cc9ff"/>
    <rect x="654" y="456" width="350" height="16" rx="8" fill="#cfe5ff"/>

    <rect x="190" y="548" width="246" height="174" rx="28" fill="#eef6ff"/>
    <rect x="226" y="586" width="64" height="64" rx="18" fill="#0b5ed7"/>
    <rect x="314" y="590" width="88" height="18" rx="9" fill="#071b3d"/>
    <rect x="314" y="626" width="78" height="14" rx="7" fill="#8ebdf5"/>
    <rect x="226" y="676" width="166" height="16" rx="8" fill="#cfe5ff"/>

    <rect x="470" y="548" width="246" height="174" rx="28" fill="#eef6ff"/>
    <rect x="506" y="586" width="64" height="64" rx="18" fill="#4d9fff"/>
    <rect x="594" y="590" width="88" height="18" rx="9" fill="#071b3d"/>
    <rect x="594" y="626" width="78" height="14" rx="7" fill="#8ebdf5"/>
    <rect x="506" y="676" width="166" height="16" rx="8" fill="#cfe5ff"/>

    <rect x="750" y="548" width="320" height="174" rx="28" fill="#071b3d"/>
    <text x="786" y="606" fill="#79d7ff" font-family="Consolas, monospace" font-size="28" font-weight="700">&lt;Build /&gt;</text>
    <rect x="786" y="640" width="220" height="14" rx="7" fill="#ffffff" opacity=".52"/>
    <rect x="786" y="674" width="164" height="14" rx="7" fill="#4d9fff"/>
  </g>

  <g filter="url(#shadow)">
    <rect x="1070" y="250" width="360" height="620" rx="62" fill="#06162f"/>
    <rect x="1098" y="302" width="304" height="512" rx="42" fill="url(#phone)"/>
    <rect x="1184" y="270" width="132" height="20" rx="10" fill="#0a234f"/>
    <text x="1140" y="386" fill="#ffffff" font-family="Arial, Helvetica, sans-serif" font-size="44" font-weight="800">Mobile App</text>
    <text x="1140" y="432" fill="#d8ecff" font-family="Arial, Helvetica, sans-serif" font-size="23" font-weight="700">Live product flow</text>
    <rect x="1140" y="488" width="218" height="116" rx="28" fill="#ffffff" opacity=".18"/>
    <rect x="1172" y="526" width="72" height="44" rx="18" fill="#ffffff" opacity=".86"/>
    <rect x="1268" y="526" width="58" height="44" rx="18" fill="#79d7ff"/>
    <rect x="1140" y="646" width="218" height="54" rx="22" fill="#ffffff" opacity=".9"/>
    <rect x="1140" y="720" width="178" height="54" rx="22" fill="#ffffff" opacity=".72"/>
  </g>
</svg>
